<?xml version="1.0" encoding="UTF-8"?>
<svg width="86px" height="86px" viewBox="0 0 86 86" version="1.1" xmlns="http://www.w3.org/2000/svg" xmlns:xlink="http://www.w3.org/1999/xlink">
    <!-- Generator: Sketch 53.2 (72643) - https://sketchapp.com -->
    <title>Shape</title>
    <desc>Created with Sketch.</desc>
    <g id="Page-1" stroke="none" stroke-width="1" fill="none" fill-rule="evenodd">
        <g id="iconmonstr-delivery-15" fill="#07D3AC">
            <path d="M71.75625,57.3333333 C79.62525,57.3835 86,63.7869167 86,71.6666667 C86,79.5786667 79.5750833,86 71.6666667,86 L14.3333333,86 C6.42133333,86 0,79.5786667 0,71.6666667 C0,63.7546667 6.42133333,57.3333333 14.3333333,57.3333333 L71.75625,57.3333333 Z M71.6666667,78.8333333 C75.6190833,78.8333333 78.8333333,75.6226667 78.8333333,71.6666667 C78.8333333,67.725 75.6441667,64.5250833 71.71325,64.5 L14.3333333,64.5 C10.3773333,64.5 7.16666667,67.7106667 7.16666667,71.6666667 C7.16666667,75.6226667 10.3773333,78.8333333 14.3333333,78.8333333 L71.6666667,78.8333333 L71.6666667,78.8333333 Z M14.3333333,68.0833333 C16.3113333,68.0833333 17.9166667,69.6886667 17.9166667,71.6666667 C17.9166667,73.6446667 16.3113333,75.25 14.3333333,75.25 C12.3553333,75.25 10.75,73.6446667 10.75,71.6666667 C10.75,69.6886667 12.3553333,68.0833333 14.3333333,68.0833333 Z M43,68.0833333 C44.978,68.0833333 46.5833333,69.6886667 46.5833333,71.6666667 C46.5833333,73.6446667 44.978,75.25 43,75.25 C41.022,75.25 39.4166667,73.6446667 39.4166667,71.6666667 C39.4166667,69.6886667 41.022,68.0833333 43,68.0833333 Z M28.6666667,68.0833333 C30.6446667,68.0833333 32.25,69.6886667 32.25,71.6666667 C32.25,73.6446667 30.6446667,75.25 28.6666667,75.25 C26.6886667,75.25 25.0833333,73.6446667 25.0833333,71.6666667 C25.0833333,69.6886667 26.6886667,68.0833333 28.6666667,68.0833333 Z M57.3333333,68.0833333 C59.3113333,68.0833333 60.9166667,69.6886667 60.9166667,71.6666667 C60.9166667,73.6446667 59.3113333,75.25 57.3333333,75.25 C55.3553333,75.25 53.75,73.6446667 53.75,71.6666667 C53.75,69.6886667 55.3553333,68.0833333 57.3333333,68.0833333 Z M71.6666667,68.0833333 C73.6446667,68.0833333 75.25,69.6886667 75.25,71.6666667 C75.25,73.6446667 73.6446667,75.25 71.6666667,75.25 C69.6886667,75.25 68.0833333,73.6446667 68.0833333,71.6666667 C68.0833333,69.6886667 69.6886667,68.0833333 71.6666667,68.0833333 Z M71.6666667,53.75 L14.3333333,53.75 L14.3333333,0 L71.6666667,0 L71.6666667,53.75 Z M35.8333333,7.16666667 L21.5,7.16666667 L21.5,46.5833333 L64.5,46.5833333 L64.5,7.16666667 L50.1666667,7.16666667 L50.1666667,25.0833333 L35.8333333,25.0833333 L35.8333333,7.16666667 Z M60.9166667,43 L46.5833333,43 L46.5833333,35.8333333 L60.9166667,35.8333333 L60.9166667,43 Z" id="Shape"></path>
        </g>
    </g>
</svg>